<?xml version="1.0" encoding="UTF-8"?><svg id="Layer_1" xmlns="http://www.w3.org/2000/svg" width="346.66" height="343.34" viewBox="0 0 346.66 343.34"><defs><style>.cls-1{stroke:#000;}.cls-1,.cls-2,.cls-3{fill:none;stroke-miterlimit:10;stroke-width:30px;}.cls-2{stroke:#edff02;}.cls-3{stroke:#edff00;}</style></defs><g><polyline class="cls-1" points="99.49 154.04 99.49 86.76 99.49 19.63"/><polyline class="cls-1" points="137.64 153.9 134.63 143.3 118.57 86.76 109.23 53.92 99.49 19.63"/><polyline class="cls-1" points="242.36 53.92 233.02 86.76 216.96 143.3 213.95 153.9 211.71 161.79 194.87 221.04 191.1 234.32 175.8 288.17 160.49 234.32 156.72 221.04 139.88 161.79 137.66 153.97"/><line class="cls-1" x1="252.1" y1="86.76" x2="252.1" y2="19.64"/><line class="cls-1" x1="252.1" y1="288.17" x2="252.1" y2="221.04"/><line class="cls-1" x1="99.49" y1="221.04" x2="99.49" y2="288.17"/><polyline class="cls-1" points="252.1 86.76 252.1 153.9 252.1 221.04"/></g><g><polyline class="cls-2" points="84.66 145.32 84.66 78.05 84.66 10.91"/><polyline class="cls-2" points="122.81 145.19 119.8 134.59 103.73 78.05 94.4 45.21 84.66 10.91"/><polyline class="cls-2" points="227.53 45.21 218.19 78.05 202.13 134.59 199.12 145.19 196.88 153.07 180.04 212.32 176.26 225.61 160.96 279.46 145.66 225.61 141.89 212.32 125.05 153.07 122.83 145.25"/><line class="cls-3" x1="237.26" y1="10.93" x2="227.53" y2="45.21"/><line class="cls-2" x1="237.27" y1="78.05" x2="237.27" y2="10.93"/><line class="cls-2" x1="237.27" y1="279.46" x2="237.27" y2="212.32"/><line class="cls-2" x1="84.66" y1="212.32" x2="84.66" y2="279.46"/><polyline class="cls-2" points="237.27 78.05 237.27 145.19 237.27 212.32"/></g></svg>