<?xml version="1.0" encoding="UTF-8"?><svg id="Layer_1" xmlns="http://www.w3.org/2000/svg" width="346.66" height="343.34" viewBox="0 0 346.66 343.34"><defs><style>.cls-1{stroke:#000;}.cls-1,.cls-2,.cls-3{fill:none;stroke-miterlimit:10;stroke-width:10px;}.cls-2{stroke:#edff02;}.cls-3{stroke:#edff00;}</style></defs><g><polyline class="cls-1" points="132.55 156.46 132.55 95.42 132.55 34.5"/><polyline class="cls-1" points="151.17 156.34 149.7 146.72 141.86 95.42 137.3 65.62 132.55 34.5"/><polyline class="cls-1" points="202.27 65.62 197.72 95.42 189.88 146.72 188.41 156.34 187.31 163.49 179.1 217.26 177.25 229.31 169.79 278.17 162.32 229.31 160.48 217.26 152.26 163.5 151.18 156.4"/><line class="cls-1" x1="207.03" y1="95.42" x2="207.03" y2="34.52"/><line class="cls-1" x1="207.03" y1="278.17" x2="207.03" y2="217.26"/><line class="cls-1" x1="132.55" y1="217.26" x2="132.55" y2="278.17"/><polyline class="cls-1" points="207.03 95.42 207.03 156.34 207.03 217.26"/></g><g><polyline class="cls-2" points="129.21 147.65 129.21 86.61 129.21 25.69"/><polyline class="cls-2" points="147.83 147.52 146.36 137.91 138.52 86.61 133.97 56.81 129.21 25.69"/><polyline class="cls-2" points="198.94 56.81 194.38 86.61 186.54 137.91 185.07 147.52 183.98 154.68 175.76 208.44 173.92 220.5 166.45 269.36 158.98 220.5 157.14 208.44 148.92 154.68 147.84 147.59"/><line class="cls-3" x1="203.69" y1="25.71" x2="198.94" y2="56.81"/><line class="cls-2" x1="203.69" y1="86.61" x2="203.69" y2="25.7"/><line class="cls-2" x1="203.69" y1="269.36" x2="203.69" y2="208.44"/><line class="cls-2" x1="129.21" y1="208.44" x2="129.21" y2="269.36"/><polyline class="cls-2" points="203.69 86.61 203.69 147.52 203.69 208.44"/></g></svg>