<?xml version="1.0" encoding="UTF-8"?><svg id="Layer_1" xmlns="http://www.w3.org/2000/svg" width="346.66" height="343.34" viewBox="0 0 346.66 343.34"><defs><style>.cls-1{stroke:#000;}.cls-1,.cls-2,.cls-3{fill:none;stroke-miterlimit:10;stroke-width:30px;}.cls-2{stroke:#edff02;}.cls-3{stroke:#edff00;}</style></defs><g><polyline class="cls-1" points="99.49 154.04 99.49 86.76 99.49 19.63"/><polyline class="cls-1" points="137.64 153.9 134.63 143.3 118.57 86.76 109.23 53.92 99.49 19.63"/><polyline class="cls-1" points="242.36 53.92 233.02 86.76 216.96 143.3 213.95 153.9 211.71 161.79 194.87 221.04 191.1 234.32 175.8 288.17 160.49 234.32 156.72 221.04 139.88 161.79 137.66 153.97"/><line class="cls-1" x1="252.1" y1="86.76" x2="252.1" y2="19.64"/><line class="cls-1" x1="252.1" y1="288.17" x2="252.1" y2="221.04"/><line class="cls-1" x1="99.49" y1="221.04" x2="99.49" y2="288.17"/><polyline class="cls-1" points="252.1 86.76 252.1 153.9 252.1 221.04"/></g><g><polyline class="cls-2" points="92.66 144.32 92.66 77.05 92.66 9.91"/><polyline class="cls-2" points="130.81 144.19 127.8 133.59 111.73 77.05 102.4 44.21 92.66 9.91"/><polyline class="cls-2" points="235.53 44.21 226.19 77.05 210.13 133.59 207.12 144.19 204.88 152.07 188.04 211.32 184.26 224.61 168.96 278.46 153.66 224.61 149.89 211.32 133.05 152.07 130.83 144.25"/><line class="cls-3" x1="245.26" y1="9.93" x2="235.53" y2="44.21"/><line class="cls-2" x1="245.27" y1="77.05" x2="245.27" y2="9.93"/><line class="cls-2" x1="245.27" y1="278.46" x2="245.27" y2="211.32"/><line class="cls-2" x1="92.66" y1="211.32" x2="92.66" y2="278.46"/><polyline class="cls-2" points="245.27 77.05 245.27 144.19 245.27 211.32"/></g></svg>